<?xml version="1.0" standalone="yes"?>
<svg xmlns="http://www.w3.org/2000/svg" width="261" height="256">
<path style="fill:#fefdfd; stroke:none;" d="M0 0L0 112L1 112C2.11807 57.8305 60.3329 2.10768 114 1L79 0L0 0z"/>
<path style="fill:#302a55; stroke:none;" d="M114 0.555542C98.7821 1.84521 83.5953 6.95543 70 13.7531C56.0351 20.7355 43.1922 30.3029 32.8449 42.0008C-27.4568 110.174 -0.0411377 216.769 85 248.807C103.291 255.698 124.574 257.824 143.999 255.827C159.034 254.282 174.545 248.958 188 242.247C203.507 234.512 217.305 224.109 228.711 211C285.182 146.095 258.742 42.684 180 10.0116C159.259 1.40553 136.284 -1.33292 114 0.555542z"/>
<path style="fill:#b7a1b0; stroke:none;" d="M116 0L116 1L119 1L116 0M139 0L139 1L145 1L139 0z"/>
<path style="fill:#fefdfd; stroke:none;" d="M145.667 0.333328L146.333 0.666672L145.667 0.333328z"/>
<path style="fill:#b7a1b0; stroke:none;" d="M147 0L147 1L152 2L152 1L147 0z"/>
<path style="fill:#fefdfd; stroke:none;" d="M148 0L148 1C226.785 10.1105 281.068 98.0383 251.796 172C244.658 190.037 234.055 206.5 220 219.961C213.07 226.598 200.881 231.954 196 240C189.833 240.129 183.668 244.872 178 247.279C168.195 251.444 156.686 254.779 146 255L146 256L261 256L261 0L148 0z"/>
<path style="fill:#0b081b; stroke:none;" d="M154 1L155 2L154 1z"/>
<path style="fill:#b7a1b0; stroke:none;" d="M154 2L154 3L157 3L154 2z"/>
<path style="fill:#0b081b; stroke:none;" d="M159 2L160 3L159 2M97 3L98 4L97 3z"/>
<path style="fill:#b7a1b0; stroke:none;" d="M159.667 3.33333L160.333 3.66667L159.667 3.33333M115 4L115 5L120 5L115 4z"/>
<path style="fill:#fefdfd; stroke:none;" d="M120 4.42438C96.4288 7.5284 74.452 13.8345 55 28.1559C41.7669 37.8986 30.6932 50.0205 22.0648 64C14.8313 75.7195 9.96218 88.6276 6.88735 102C-12.5863 186.691 64.5748 261.95 148 250.711C165.695 248.328 182.965 241.882 198 232.305C211.061 223.984 222.518 213.591 231.572 201C281.381 131.732 247.244 32.8457 165 9.00076C150.948 4.92667 134.594 2.50247 120 4.42438z"/>
<path style="fill:#b7a1b0; stroke:none;" d="M139 4L139 5L144 5L139 4M163.667 4.33333L164.333 4.66667L163.667 4.33333M167 4L167 6L169 6L167 4z"/>
<path style="fill:#0b081b; stroke:none;" d="M90 5L91 6L90 5z"/>
<path style="fill:#b7a1b0; stroke:none;" d="M108 5L108 6L111 6L108 5M148 5L148 6L151 6L148 5z"/>
<path style="fill:#0b081b; stroke:none;" d="M87 6L88 7L87 6z"/>
<path style="fill:#b7a1b0; stroke:none;" d="M103.667 6.33333L104.333 6.66667L103.667 6.33333M154 6L154 7L157 7L154 6M170.667 6.33333L171.333 6.66667L170.667 6.33333z"/>
<path style="fill:#0b081b; stroke:none;" d="M84 7L85 8L84 7z"/>
<path style="fill:#b7a1b0; stroke:none;" d="M99.6667 7.33333L100.333 7.66667L99.6667 7.33333M159.667 7.33333L160.333 7.66667L159.667 7.33333M173 7L174 8L173 7M95.6667 8.33333L96.3333 8.66667L95.6667 8.33333M163.667 8.33333L164.333 8.66667L163.667 8.33333M176 8L177 9L176 8z"/>
<path style="fill:#0b081b; stroke:none;" d="M79 9L80 10L79 9z"/>
<path style="fill:#b7a1b0; stroke:none;" d="M92 9L93 10L92 9M166.667 9.33333L167.333 9.66667L166.667 9.33333M178 9L179 10L178 9M89 10L90 11L89 10M119 10L119 11L139 11L119 10M170 10L171 11L170 10M181 10L182 11L181 10M86 11L87 12L86 11M111 11L111 12L114 12L111 11z"/>
<path style="fill:#302a55; stroke:none;" d="M114 11.4282C96.2407 13.9713 79.1741 19.7745 64 29.4359C51.3085 37.5167 39.6881 48.6952 31.0363 61C23.0345 72.3803 16.935 85.5103 13.4784 99C-7.6147 181.319 65.5333 256.877 148 244.728C164.635 242.278 180.947 236.289 195 226.996C209.358 217.502 221.602 205.636 230.771 191C282.703 108.097 211.665 -2.55707 114 11.4282z"/>
<path style="fill:#b7a1b0; stroke:none;" d="M144 11L144 12L148 12L144 11M172.667 11.3333L173.333 11.6667L172.667 11.3333M183 11L184 12L183 11M83 12L84 13L83 12M105 12L105 13L108 13L105 12M151.667 12.3333L152.333 12.6667L151.667 12.3333M175 12L176 13L175 12M185 12L186 13L185 12M188 12L189 13L188 12M81 13L82 14L81 13M101.667 13.3333L102.333 13.6667L101.667 13.3333M156.667 13.3333L157.333 13.6667L156.667 13.3333M178 13L179 14L178 13M187 13L188 14L187 13M190 13L191 14L190 13M78.6667 14.3333L79.3333 14.6667L78.6667 14.3333M97.6667 14.3333L98.3333 14.6667L97.6667 14.3333M160.667 14.3333L161.333 14.6667L160.667 14.3333M180 14L181 15L180 14M189 14L190 15L189 14z"/>
<path style="fill:#0b081b; stroke:none;" d="M192 14L193 15L192 14z"/>
<path style="fill:#b7a1b0; stroke:none;" d="M76 15L77 16L76 15M93.6667 15.3333L94.3333 15.6667L93.6667 15.3333M164 15L165 16L164 15M182 15L183 16L182 15M191 15L192 16L191 15M74 16L75 17L74 16M90.6667 16.3333L91.3333 16.6667L90.6667 16.3333M167 16L168 17L167 16M184 16L185 17L184 16M193 16L194 17L193 16M72 17L73 18L72 17M88 17L89 18L88 17M170 17L171 18L170 17M195 17L196 18L195 17M70 18L71 19L70 18M85 18L86 19L85 18M172.667 18.3333L173.333 18.6667L172.667 18.3333M188 18L189 19L188 18M199 18L200 19L199 18M68 19L69 20L68 19M83 19L84 20L83 19M175 19L176 20L175 19M190 19L191 20L190 19M198 19L199 20L198 19z"/>
<path style="fill:#0b081b; stroke:none;" d="M58 20L59 21L58 20z"/>
<path style="fill:#b7a1b0; stroke:none;" d="M80 20L81 21L80 20M177 20L178 21L177 20M192 20L193 21L192 20M200 20L201 21L200 20M65 21L66 22L65 21M78 21L79 22L78 21M125 21L125 22L130 22L125 21M180 21L181 22L180 21M194 21L195 22L194 21M201 21L202 22L201 21z"/>
<path style="fill:#0b081b; stroke:none;" d="M55 22L56 23L55 22z"/>
<path style="fill:#b7a1b0; stroke:none;" d="M63 22L64 23L63 22M76 22L77 23L76 22M117 22L118 26L119 26L117 22z"/>
<path style="fill:#fefdfd; stroke:none;" d="M118 22L118 25L122 25C122.048 28.8984 121.791 32.7689 126 34L130 22L118 22M134 22L133 34L137 35L138 22L134 22z"/>
<path style="fill:#b7a1b0; stroke:none;" d="M182 22L183 23L182 22M203 22L204 23L203 22M74 23L75 24L74 23M107 26L108 26L111 24L107 26z"/>
<path style="fill:#fefdfd; stroke:none;" d="M105 37L109 37L109 34L119 35L112 23C106.201 25.5604 106.439 31.4374 105 37z"/>
<path style="fill:#b7a1b0; stroke:none;" d="M144 23L145 24L144 23z"/>
<path style="fill:#fefdfd; stroke:none;" d="M145.109 23.7577C137.557 26.7401 142.318 38.1992 149.941 35.3812C157.557 32.566 152.771 20.7314 145.109 23.7577z"/>
<path style="fill:#b7a1b0; stroke:none;" d="M150 23L151 24L150 23M184 23L185 24L184 23M197 23L198 24L197 23M204 23L205 24L204 23M60 24L61 25L60 24M72 24L73 25L72 24M127 24L127 25L130 25L127 24M142 24L143 25L142 24M152 24L153 25L152 24M186 24L187 25L186 24M199 24L200 25L199 24M208 24L209 25L208 24M70 25L71 26L70 25M113 25L114 26L113 25M121 25L122 26L121 25M153 25L154 26L153 25M160 25L159 28L160 28L160 25M200 25L201 26L200 25M207 25L208 26L207 25M57 26L58 27L57 26M96.6667 26.3333L97.3333 26.6667L96.6667 26.3333z"/>
<path style="fill:#fefdfd; stroke:none;" d="M96 27L98 34L88 29L91 41L95 41L93 34L103 38L99 26L96 27z"/>
<path style="fill:#b7a1b0; stroke:none;" d="M99 26L100 27L99 26M141 26L142 27L141 26z"/>
<path style="fill:#302a55; stroke:none;" d="M146 26C143.805 36.5482 154.113 28.6942 146 26z"/>
<path style="fill:#b7a1b0; stroke:none;" d="M149 26L150 27L149 26z"/>
<path style="fill:#fefdfd; stroke:none;" d="M160 26L156 37L159 38L161 32L162 32C162.898 36.2778 163.554 39.5968 168 41L171 29L165 34C164.457 30.0812 163.971 27.3053 160 26z"/>
<path style="fill:#b7a1b0; stroke:none;" d="M163 26L164 27L163 26M189 26L190 27L189 26M208 26L209 27L208 26M67 27L68 28L67 27M110 27L112 29L110 27M114 27L115 28L114 27M133 27L133 33L134 33L133 27M145 27L146 28L145 27M150 27L150 31L151 31L150 27M154 27L154 32L155 32L154 27M191 27L192 28L191 27M203 27L204 28L203 27M212 27L213 28L212 27M54 28L55 29L54 28M65 28L66 29L65 28M90 28L91 29L90 28M96.3333 28.6667L96.6667 29.3333L96.3333 28.6667M100 28L101 29L100 28M106 28L106 31L107 31L106 28z"/>
<path style="fill:#302a55; stroke:none;" d="M110 28L112 31L110 28z"/>
<path style="fill:#b7a1b0; stroke:none;" d="M115 28L116 29L115 28M137 28L137 34L138 34L137 28M168.667 28.3333L169.333 28.6667L168.667 28.3333M211 28L212 29L211 28M53 29L54 30L53 29M87.3333 29.6667L87.6667 30.3333L87.3333 29.6667M92 29L93 30L92 29M158 29L159 30L158 29M164.333 29.6667L164.667 30.3333L164.333 29.6667M171 29L171 32L172 32L171 29M194 29L195 30L194 29M206 29L207 30L206 29M212 29L213 30L212 29M62 30L63 31L62 30M93 30L94 31L93 30M112 30L113 31L112 30M116 30L117 31L116 30M126 30L126 34L123 31L122 31L122 35L127 35L126 30M167.333 30.6667L167.667 31.3333L167.333 30.6667M196 30L197 31L196 30M207 30L208 31L207 30M213 30L214 31L213 30M97 31L98 34L97 31M101 31L102 32L101 31M110.667 31.3333L111.333 31.6667L110.667 31.3333M197 31L198 32L197 31M208 31L209 32L208 31M49 32L50 33L49 32M59 32L60 33L59 32M81 32L82 33L81 32M88.3333 32.6667L88.6667 33.3333L88.3333 32.6667M145 32L146 33L145 32M149 32L150 33L149 32M157 32L158 33L157 32M161 32L162 33L161 32M165 32L165 34L167 34L165 32M179 32L177 35L179 32z"/>
<path style="fill:#0b081b; stroke:none;" d="M218 32L219 33L218 32M41 33L42 34L41 33z"/>
<path style="fill:#b7a1b0; stroke:none;" d="M48 33L49 34L48 33M58 33L59 34L58 33M79 33L80 34L79 33z"/>
<path style="fill:#fefdfd; stroke:none;" d="M73 37L78 48L82 47L80 41L89 43L84 40C85.9046 30.8471 78.2048 33.9771 73 37z"/>
<path style="fill:#b7a1b0; stroke:none;" d="M113 33L114 34L113 33M118 33L119 34L118 33M153 33L154 34L153 33M170 33L171 34L170 33z"/>
<path style="fill:#fefdfd; stroke:none;" d="M170 42L179 44L178 46L182 48C182.029 44.5301 183.94 38.5658 182.382 35.4522C179.577 29.8455 171.604 39.7418 170 42z"/>
<path style="fill:#b7a1b0; stroke:none;" d="M181 33L182 34L181 33M200 33L201 34L200 33M211 33L212 34L211 33M217 33L218 34L217 33z"/>
<path style="fill:#0b081b; stroke:none;" d="M40 34L41 35L40 34z"/>
<path style="fill:#b7a1b0; stroke:none;" d="M47 34L48 35L47 34M77 34L78 35L77 34M93 34L93 37L94 37L93 34M102 34L103 35L102 34M105.333 34.6667L105.667 35.3333L105.333 34.6667M109 34L110 35L109 34M114 34L115 35L114 34M133 34L133 35L136 35L133 34M142 34L143 35L142 34M152 34L153 35L152 34M156.333 34.6667L156.667 35.3333L156.333 34.6667M160.333 34.6667L160.667 35.3333L160.333 34.6667M162.333 34.6667L162.667 35.3333L162.333 34.6667M201 34L202 35L201 34M212 34L213 35L212 34M218 34L219 35L218 34M55 35L56 36L55 35M75 35L76 36L75 35M89.3333 35.6667L89.6667 36.3333L89.3333 35.6667M115.667 35.3333L116.333 35.6667L115.667 35.3333M144 35L145 36L144 35M151 35L152 36L151 35M183 35L184 36L183 35M213 35L214 36L213 35M219 35L220 36L219 35M54 36L55 37L54 36M73 36L74 37L73 36M78 36L77 38L78 36z"/>
<path style="fill:#302a55; stroke:none;" d="M78 39L81 36L78 39z"/>
<path style="fill:#b7a1b0; stroke:none;" d="M85 36L86 37L85 36M96 36L97 37L96 36M169 36L170 37L169 36M204 36L205 37L204 36M214 36L215 37L214 36M220 36L221 37L220 36M81 37L82 38L81 37M97 37L98 38L97 37M103 37L104 38L103 37M105 37L106 38L105 37M156 37L157 38L156 37M159 37L160 38L159 37M177 41L178 41L179 40L180 40L179 37L177 41M205 37L206 38L205 37M221 37L222 38L221 37M42 38L43 39L42 38M73 38L74 39L73 38M80 38L81 39L80 38M84 38L84 40L86 40L84 38M90 38L91 39L90 38M94 38L95 39L94 38M101.667 38.3333L102.333 38.6667L101.667 38.3333M158 38L159 39L158 38M163 38L164 39L163 38M168.333 38.6667L168.667 39.3333L168.333 38.6667M172 38L173 39L172 38z"/>
<path style="fill:#302a55; stroke:none;" d="M178 38L179 41L178 38z"/>
<path style="fill:#b7a1b0; stroke:none;" d="M222 38L223 39L222 38M41 39L42 40L41 39M50 39L51 40L50 39M68 39L69 40L68 39M78 39L79 40L78 39M171 39L172 40L171 39z"/>
<path style="fill:#fefdfd; stroke:none;" d="M190 39C186.477 44.6637 181.317 54.1937 193 53L193 52L188 49L188 48C191.016 45.2816 192.613 43.0897 192 39L190 39z"/>
<path style="fill:#b7a1b0; stroke:none;" d="M223 39L224 40L223 39z"/>
<path style="fill:#0b081b; stroke:none;" d="M34 40L35 41L34 40z"/>
<path style="fill:#b7a1b0; stroke:none;" d="M40 40L41 41L40 40M49 40L50 41L49 40z"/>
<path style="fill:#fefdfd; stroke:none;" d="M60 45C64.1624 52.3048 70.7909 58.1877 76 48L68 51L72 44L65 47L70 40L60 45z"/>
<path style="fill:#b7a1b0; stroke:none;" d="M74 40L75 41L74 40M87 40L88 41L87 40M164 40L165 41L164 40M170 40L171 41L170 40M182 40L182 45L183 45L182 40M189 40L190 41L189 40M193.333 40.6667L193.667 41.3333L193.333 40.6667M224 40L225 41L224 40z"/>
<path style="fill:#0b081b; stroke:none;" d="M33 41L34 42L33 41z"/>
<path style="fill:#b7a1b0; stroke:none;" d="M39 41L40 42L39 41M48 41L49 42L48 41M65 41L66 42L65 41M80.6667 41.3333L81.3333 41.6667L80.6667 41.3333M88 41L89 42L88 41M91.6667 41.3333L92.3333 41.6667L91.6667 41.3333M167 41L168 42L167 41M169 41L170 42L169 41M188 41L189 42L188 41M210 41L211 42L210 41M225 41L226 42L225 41M38 42L39 43L38 42M47 42L48 43L47 42M75 42L76 43L75 42M83 42L84 43L83 42M89 42L90 43L89 42M170 42L171 43L170 42M173 42L174 43L173 42M175 42L176 43L175 42M211 42L212 43L211 42M226 42L227 43L226 42M228 42L229 43L228 42M37 43L38 44L37 43M46 43L47 44L46 43M62 43L63 44L62 43M67 43L68 44L67 43M71 43L72 44L71 43M80 43L81 44L80 43M84 43L85 44L84 43M88 43L89 44L88 43z"/>
<path style="fill:#d31525; stroke:none;" d="M126 43.4282C92.8374 47.388 63.9032 62.1484 49.3086 94C22.4218 152.679 71.8209 223.51 137 215.715C181.749 210.363 214.353 176.137 216.907 131C219.536 84.5394 173.093 37.8051 126 43.4282z"/>
<path style="fill:#b7a1b0; stroke:none;" d="M172 43L173 44L172 43M177 43L178 44L177 43M212 43L213 44L212 43z"/>
<path style="fill:#0b081b; stroke:none;" d="M229 43L230 44L229 43z"/>
<path style="fill:#b7a1b0; stroke:none;" d="M45 44L46 45L45 44M61 44L62 45L61 44M69 44L70 45L69 44M76 44L77 45L76 44M86 44L87 45L86 44M178 44L179 45L178 44M186 44L187 45L186 44M191 44L192 45L191 44M213 44L214 45L213 44M44 45L45 46L44 45M68 45L69 46L68 45M72 45L73 46L72 45M81 45L82 46L81 45M185 45L186 46L185 45M190 45L191 46L190 45M214 45L215 46L214 45M223 45L224 46L223 45M43 46L44 47L43 46M60 46L61 47L60 46M65.6667 46.3333L66.3333 46.6667L65.6667 46.3333M71 46L72 47L71 46M77 46L78 47L77 46M178 46L179 47L178 46M215 46L216 47L215 46M224 46L225 47L224 46M42 47L43 48L42 47M61 47L62 48L61 47M74 47L75 48L74 47M80 47L81 48L80 47M180 47L181 48L180 47M216 47L217 48L216 47M225 47L226 48L225 47M230 47L231 48L230 47z"/>
<path style="fill:#0b081b; stroke:none;" d="M27 48L28 49L27 48z"/>
<path style="fill:#b7a1b0; stroke:none;" d="M33 48L34 49L33 48M41 48L42 49L41 48M56 48L57 49L56 48z"/>
<path style="fill:#fefdfd; stroke:none;" d="M57 48C53.3445 50.7954 49.9282 53.1817 50 58L55 56L61 62L62 61L56 53L56 52L57 48z"/>
<path style="fill:#b7a1b0; stroke:none;" d="M68 48L69 49L68 48M73 48L74 49L73 48M183.333 48.6667L183.667 49.3333L183.333 48.6667M188 48L189 49L188 48M217 48L218 49L217 48M226 48L227 49L226 48M231 48L232 49L231 48M32 49L33 50L32 49M40 49L41 50L40 49M58.3333 49.6667L58.6667 50.3333L58.3333 49.6667M71 49L72 50L71 49M76 49L77 50L76 49M218 49L219 50L218 49M232 49L233 50L232 49z"/>
<path style="fill:#0b081b; stroke:none;" d="M234 49L235 50L234 49z"/>
<path style="fill:#b7a1b0; stroke:none;" d="M31 50L32 51L31 50M39 50L40 51L39 50M63 50L64 51L63 50M68 50L69 51L68 50M70 50L71 51L70 50M75 50L76 51L75 50M190 50L191 51L190 50M38 51L39 52L38 51M57 51L58 52L57 51M64 51L65 52L64 51M186 51L187 52L186 51M37 52L38 53L37 52M56 52L57 53L56 52M72 52L73 53L72 52M229 52L230 53L229 52M234 52L235 53L234 52M29 53L30 54L29 53M50 53L51 54L50 53M189 53L190 54L189 53M192 53L193 54L192 53M230 53L231 54L230 53M235 53L236 54L235 53z"/>
<path style="fill:#0b081b; stroke:none;" d="M237 53L238 54L237 53z"/>
<path style="fill:#b7a1b0; stroke:none;" d="M28 54L29 55L28 54M49 54L50 55L49 54M66 54L67 55L66 54M69 54L70 55L69 54M190.667 54.3333L191.333 54.6667L190.667 54.3333M222 54L223 55L222 54M35 55L36 56L35 55M48.3333 55.6667L48.6667 56.3333L48.3333 55.6667M67 55L68 56L67 55M223 55L224 56L223 55M236 55L237 56L236 55z"/>
<path style="fill:#0b081b; stroke:none;" d="M21 56L22 57L21 56z"/>
<path style="fill:#b7a1b0; stroke:none;" d="M34 56L35 57L34 56M54 56L55 57L54 56M59 56L60 57L59 56M117 56L118 57L117 56z"/>
<path style="fill:#fefdfd; stroke:none;" d="M118.005 56.8364C108.285 59.7573 111.556 76.2249 121.957 73.5509C131.69 71.0486 127.941 53.8504 118.005 56.8364z"/>
<path style="fill:#b7a1b0; stroke:none;" d="M121.667 56.3333L122.333 56.6667L121.667 56.3333M211 56L210 58L211 56z"/>
<path style="fill:#fefdfd; stroke:none;" d="M212 56C200.537 65.4461 208.177 74.3611 220 66L220 64L219 63L209 68C208.588 63.2991 211.417 61.6088 215 59L212 56z"/>
<path style="fill:#b7a1b0; stroke:none;" d="M213 56L214 57L213 56M232 56L233 57L232 56M237 56L238 57L237 56M239 56L240 57L239 56M26 57L27 58L26 57M33 57L34 58L33 57M49 57L50 58L49 57M60 57L61 58L60 57M115 57L116 58L115 57M151 57L154 60L151 57M214 57L215 58L214 57M233 57L234 58L233 57M25 58L26 59L25 58M61 58L62 59L61 58M114 58L115 59L114 58M125 58L126 59L125 58z"/>
<path style="fill:#fefdfd; stroke:none;" d="M89 114C99.1323 114 114.483 116.905 124 113.397C135.314 109.226 145.037 94.2107 154 86.4244C157.296 83.5611 163.538 79.4709 164.654 75C165.723 70.7193 156.569 61.4732 152.996 59.7515C147.592 57.1475 139.542 67.6433 136 70.831C120.788 84.5224 101.428 97.7499 89 114z"/>
<path style="fill:#b7a1b0; stroke:none;" d="M225 58L226 59L225 58z"/>
<path style="fill:#0b081b; stroke:none;" d="M19 59L20 60L19 59z"/>
<path style="fill:#b7a1b0; stroke:none;" d="M44 59L45 60L44 59z"/>
<path style="fill:#fefdfd; stroke:none;" d="M45 59L43 61L43 62L48 65L48 66C36.4935 66.0089 39.7436 70.2354 47 76L48 76L50 73L45 69L55 68L55 66L45 59z"/>
<path style="fill:#b7a1b0; stroke:none;" d="M62.3333 59.6667L62.6667 60.3333L62.3333 59.6667M113 59L114 60L113 59M148 59L149 60L148 59M207 59L208 60L207 59M214 59L215 60L214 59M226 59L227 60L226 59M234 59L235 60L234 59M239 59L240 60L239 59M241 59L242 60L241 59M24 60L25 61L24 60M31 60L32 61L31 60M47 60L48 61L47 60M147 60L148 61L147 60M206 60L207 61L206 60M212 60L213 61L212 60M235 60L236 61L235 60M23 61L24 62L23 61M48 61L49 62L48 61M61 61L62 62L61 61M127 61L128 62L127 61M146 61L147 62L146 61M205 61L206 62L205 61M211 61L212 62L211 61M240 61L241 62L240 61M43 62L44 63L43 62M60 62L61 63L60 62M145 62L146 63L145 62M204 62L204 66L205 66L204 62M218 62L219 63L218 62M228 62L229 63L228 62M236 62L237 63L236 62M241 62L242 63L241 62M22 63L23 64L22 63M29 63L30 64L29 63M51 63L52 64L51 63M111 63L111 67L112 67L111 63M144 63L145 64L144 63M208 63L209 64L208 63M216 63L217 64L216 63M229 63L230 64L229 63M237 63L238 64L237 63z"/>
<path style="fill:#0b081b; stroke:none;" d="M16 64L17 65L16 64z"/>
<path style="fill:#b7a1b0; stroke:none;" d="M21 64L22 65L21 64M28 64L29 65L28 64M46 64L47 65L46 64M52 64L53 65L52 64M242 64L243 65L242 64M47 65L48 66L47 65M213 65L214 66L213 65M220 65L221 66L220 65M230 65L231 66L230 65M238 65L239 66L238 65M20 66L21 67L20 66M27 66L28 67L27 66M55 66L56 67L55 66M159 66L160 67L159 66M208 66L209 67L208 66M212 66L213 67L212 66M231 66L232 67L231 66M243 66L244 67L243 66M38 67L39 68L38 67M160 67L161 68L160 67M205 67L206 68L205 67M209.667 67.3333L210.333 67.6667L209.667 67.3333M217 67L218 68L217 67M239 67L240 68L239 67M19 68L20 69L19 68M37 68L38 69L37 68M54 68L55 69L54 68M127 68L128 69L127 68M138 68L139 69L138 68M161 68L162 69L161 68M216 68L217 69L216 68M232 68L233 69L232 68M240 68L241 69L240 68M244 68L245 69L244 68M25 69L26 70L25 69M38 69L39 70L38 69M45 69L45 70L54 70L45 69M112 69L113 70L112 69M137 69L138 70L137 69M162 69L163 70L162 69M223 69L224 70L223 69M245 69L246 70L245 69M18 70L19 71L18 70M126 70L127 71L126 70M136 70L137 71L136 70M163 70L164 71L163 70M208 70L209 71L208 70M213 70L214 71L213 70M221 70L222 71L221 70z"/>
<path style="fill:#fefdfd; stroke:none;" d="M212 75L213 78L220 76L217 86L229 81L229 79L221 80L224 70L212 75z"/>
<path style="fill:#b7a1b0; stroke:none;" d="M233 70L234 71L233 70M241 70L242 71L241 70M24 71L25 72L24 71M41 71L42 72L41 71M47 71L48 72L47 71M104 71L96 80L104 71z"/>
<path style="fill:#fefdfd; stroke:none;" d="M105 71L61 114L84 113.436L107 94.4244L113.897 86L105 71z"/>
<path style="fill:#b7a1b0; stroke:none;" d="M135 71L136 72L135 71M164 71L165 72L164 71M219 71L220 72L219 71M224 71L225 72L224 71M246 71L247 72L246 71M17 72L18 73L17 72M42 72L43 73L42 72M48 72L49 73L48 72M106 72L107 73L106 72M134 72L135 73L134 72M217 72L218 73L217 72M242 72L243 73L242 72M23 73L24 74L23 73M34 73L35 74L34 73z"/>
<path style="fill:#fefdfd; stroke:none;" d="M33 76L45 82L46 79C41.9065 76.5859 37.1705 72.3837 33 76z"/>
<path style="fill:#b7a1b0; stroke:none;" d="M36 73L37 74L36 73M116 73L117 74L116 73M123 73L124 74L123 73M215 73L216 74L215 73M235 73L236 74L235 73M247 73L248 74L247 73M16 74L17 75L16 74M45 74L46 75L45 74M49 74L50 75L49 74M119 74L120 75L119 74M166 74L167 75L166 74M213 74L214 75L213 74M243 74L244 75L243 74M22 75L23 76L22 75M39 75L40 76L39 75M46 75L47 76L46 75M48 75L49 76L48 75M108 75L109 76L108 75M165 75L166 76L165 75M223 75L224 76L223 75M236 75L237 76L236 75M15 76L16 77L15 76M33 76L34 77L33 76M41 76L42 77L41 76M167 76L159 85L167 76z"/>
<path style="fill:#fefdfd; stroke:none;" d="M168 76C156.36 87.6321 137.762 99.4596 130 114L153 113.397L172.995 95.0895L178.079 87.9606L168 76z"/>
<path style="fill:#b7a1b0; stroke:none;" d="M212 76L213 77L212 76M217 76L218 77L217 76M219 76L220 77L219 76M244 76L245 77L244 76M248 76L249 77L248 76M21 77L22 78L21 77M35 77L36 78L35 77M43 77L44 78L43 77M128 77L129 78L128 77M215 77L216 78L215 77M222 77L223 78L222 77M226.667 77.3333L227.333 77.6667L226.667 77.3333M237 77L238 78L237 77z"/>
<path style="fill:#0b081b; stroke:none;" d="M9 78L10 79L9 78z"/>
<path style="fill:#b7a1b0; stroke:none;" d="M14 78L15 79L14 78M110 78L111 79L110 78M127 78L128 79L127 78M170 78L171 79L170 78M213 78L214 79L213 78M218 78L219 79L218 78M224 78L225 79L224 78M228 78L229 79L228 78M249 78L250 79L249 78M251 78L252 79L251 78M20 79L21 80L20 79M38 79L39 80L38 79M126 79L127 80L126 79M171 79L172 80L171 79M221.667 79.3333L222.333 79.6667L221.667 79.3333M238 79L239 80L238 79M245 79L246 80L245 79M13 80L14 81L13 80M40 80L41 81L40 80M45 80L46 81L45 80M125 80L126 81L125 80M172 80L173 81L172 80M217 80L218 81L217 80M250 80L251 81L250 80M19 81L20 82L19 81M42 81L43 82L42 81M112 81L113 82L112 81M124 81L125 82L124 81M173 81L174 82L173 81M227 81L228 82L227 81M246 81L247 82L246 81M12.3333 82.6667L12.6667 83.3333L12.3333 82.6667M44 82L45 83L44 82M174 82L175 83L174 82M225 82L226 83L225 82M239 82L240 83L239 82z"/>
<path style="fill:#0b081b; stroke:none;" d="M7 83L8 84L7 83z"/>
<path style="fill:#b7a1b0; stroke:none;" d="M18 83L19 84L18 83M113 83L114 84L113 83M175 83L176 84L175 83M223 83L224 84L223 83M247.333 83.6667L247.667 84.3333L247.333 83.6667M251 83L252 84L251 83M253 83L254 84L253 83M114 84L115 85L114 84M216 84L217 85L216 84M221 84L222 85L221 84M230 84L232 86L230 84M240 84L241 85L240 84M11 85L12 86L11 85M219 85L220 86L219 85M227.667 85.3333L228.333 85.6667L227.667 85.3333z"/>
<path style="fill:#fefdfd; stroke:none;" d="M219 89L220 92L232 88L232 86L231 85L219 89z"/>
<path style="fill:#b7a1b0; stroke:none;" d="M252.333 85.6667L252.667 86.3333L252.333 85.6667M17 86L18 87L17 86M115 86L116 87L115 86M118 86L119 87L118 86M153 86L154 87L153 86M225 86L226 87L225 86M241.333 86.6667L241.667 87.3333L241.333 86.6667M248 86L249 87L248 86M114 87L115 88L114 87M117 87L118 88L117 87M152 87L153 88L152 87M222 87L223 88L222 87M232 87L233 88L232 87M10 88L11 89L10 88M16.3333 88.6667L16.6667 89.3333L16.3333 88.6667M29 88L30 89L29 88z"/>
<path style="fill:#fefdfd; stroke:none;" d="M30.0193 88.9275C21.5355 91.1968 25.3233 103.841 33.9452 101.677C42.2327 99.5981 38.1425 86.7546 30.0193 88.9275z"/>
<path style="fill:#b7a1b0; stroke:none;" d="M32.6667 88.3333L33.3333 88.6667L32.6667 88.3333M113 88L114 89L113 88M116 88L117 89L116 88M151 88L152 89L151 88M179 88L180 89L179 88M220 88L221 89L220 88M230.667 88.3333L231.333 88.6667L230.667 88.3333M253.333 88.6667L253.667 89.3333L253.333 88.6667M27 89L28 90L27 89M35 89L36 90L35 89M85 89L86 90L85 89M112 89L113 90L112 89M115 89L116 90L115 89M150 89L151 90L150 89M228 89L229 90L228 89M242 89L243 90L242 89M249 89L250 90L249 89M26 90L27 91L26 90M37 90L38 91L37 90M84 90L85 91L84 90M114 90L115 91L114 90M149 90L150 91L149 90M181 90L188 97L181 90M219 90L220 91L219 90M225.667 90.3333L226.333 90.6667L225.667 90.3333M9 91L10 92L9 91M15.3333 91.6667L15.6667 92.3333L15.3333 91.6667M25 91L26 92L25 91M83 91L84 92L83 91M148 91L149 92L148 91z"/>
<path style="fill:#fefdfd; stroke:none;" d="M159 113L202 113C198.469 107.986 187.625 92.2068 181 92.2068C174.41 92.2068 162.565 107.94 159 113z"/>
<path style="fill:#b7a1b0; stroke:none;" d="M223 91L224 92L223 91M232 91L231 93L232 91z"/>
<path style="fill:#fefdfd; stroke:none;" d="M233 91C220.119 101.225 225.201 101.624 238 104L237 100L227 100L227 99L235 95L233 91z"/>
<path style="fill:#b7a1b0; stroke:none;" d="M254.333 91.6667L254.667 92.3333L254.333 91.6667z"/>
<path style="fill:#0b081b; stroke:none;" d="M4 92L5 93L4 92z"/>
<path style="fill:#b7a1b0; stroke:none;" d="M28 93L28 94L33 93L28 93M38 92L39 93L38 92M82 92L83 93L82 92M147 92L148 93L147 92M175 92L176 93L175 92M220.667 92.3333L221.333 92.6667L220.667 92.3333M234 92L235 93L234 92M243.333 92.6667L243.667 93.3333L243.333 92.6667M250 92L251 93L250 92M256 92L257 93L256 92z"/>
<path style="fill:#302a55; stroke:none;" d="M28 97C39.5875 99.6461 30.7385 88.7566 28 97z"/>
<path style="fill:#b7a1b0; stroke:none;" d="M34 93L35 94L34 93M81 93L82 94L81 93M146 93L147 94L146 93M174 93L175 94L174 93M8.33333 94.6667L8.66667 95.3333L8.33333 94.6667M14.3333 94.6667L14.6667 95.3333L14.3333 94.6667M24 94L24 98L25 98L24 94M35 94L36 95L35 94M80 94L81 95L80 94M106 94L107 95L106 94M145 94L146 95L145 94M173 94L174 95L173 94M228 94L229 95L228 94M79 95L80 96L79 95M105 95L106 96L105 95M108 95L109 96L108 95M144 95L145 96L144 95M172 95L173 96L172 95M227 95L228 96L227 95M233 95L234 96L233 95M244.333 95.6667L244.667 96.3333L244.333 95.6667M251.333 95.6667L251.667 96.3333L251.333 95.6667M255.333 95.6667L255.667 96.3333L255.333 95.6667M35 96L36 97L35 96M78 96L79 97L78 96M104 96L105 97L104 96M107 96L108 97L107 96M171 96L172 97L171 96M29 97L30 98L29 97M38.3333 97.6667L38.6667 98.3333L38.3333 97.6667M77 97L78 98L77 97M103 97L104 98L103 97M106 97L107 98L106 97M170 97L171 98L170 97M224 97L225 98L224 97M230 97L231 98L230 97M7.33333 98.6667L7.66667 99.3333L7.33333 98.6667M13 98L14 99L13 98M31 98L31 99L34 99L31 98M105 98L106 99L105 98M144 98L145 99L144 98M169 98L170 99L169 98M223 98L224 99L223 98M25 99L26 100L25 99M104 99L105 100L104 99M143 99L144 100L143 99M168 99L169 100L168 99M227 99L228 100L227 99M245.333 99.6667L245.667 100.333L245.333 99.6667M252.333 99.6667L252.667 100.333L252.333 99.6667M256.333 99.6667L256.667 100.333L256.333 99.6667z"/>
<path style="fill:#0b081b; stroke:none;" d="M2 100L3 101L2 100z"/>
<path style="fill:#b7a1b0; stroke:none;" d="M26 100L27 101L26 100M142 100L143 101L142 100M167 100L168 101L167 100M27 101L28 102L27 101M141 101L142 102L141 101M166 101L167 102L166 101M223 101L224 102L223 101M237.333 101.667L237.667 102.333L237.333 101.667M6.33333 102.667L6.66667 103.333L6.33333 102.667M12.3333 102.667L12.6667 103.333L12.3333 102.667M30 102L30 103L35 103L30 102M97 102L98 103L97 102M140 102L141 103L140 102M165 102L166 103L165 102M96 103L97 104L96 103M139 103L140 104L139 103M164 103L165 104L164 103M193 103L194 104L193 103M227 103L227 104L236 104L227 103M246.333 103.667L246.667 104.333L246.333 103.667M257 103L257 106L258 106L257 103M95 104L96 105L95 104M138 104L139 105L138 104M163 104L164 105L163 104M194 104L195 105L194 104M253.333 104.667L253.667 105.333L253.333 104.667z"/>
<path style="fill:#0b081b; stroke:none;" d="M1 105L2 106L1 105z"/>
<path style="fill:#b7a1b0; stroke:none;" d="M21 108L25 106L21 108z"/>
<path style="fill:#fefdfd; stroke:none;" d="M25.044 105.782C16.2566 108.89 21.4145 121.548 29.9414 118.381C37.6796 115.507 33.1834 102.904 25.044 105.782z"/>
<path style="fill:#b7a1b0; stroke:none;" d="M29.6667 105.333L30.3333 105.667L29.6667 105.333M94 105L95 106L94 105M97 105L98 106L97 105M133 105L134 106L133 105M137 105L138 106L137 105M162 105L163 106L162 105M195 105L196 106L195 105M11 106L11 109L12 109L11 106M32 106L33 107L32 106M67 106L68 107L67 106M93 106L94 107L93 106M96 106L97 107L96 106M132 106L133 107L132 106M136 106L137 107L136 106M196 106L197 107L196 106M5 107L5 110L6 110L5 107M33 107L34 108L33 107M66 107L67 108L66 107M95 107L96 108L95 107M131 107L132 108L131 107M135 107L136 108L135 107M197 107L198 108L197 107M65 108L66 109L65 108M94 108L95 109L94 108M130 108L131 109L130 108M134 108L135 109L134 108M162 108L163 109L162 108M198 108L199 109L198 108M229 108L229 109L233 109L229 108z"/>
<path style="fill:#fefdfd; stroke:none;" d="M226 109L227 120L229 120L229 112L232 112C232.013 115.194 231.597 117.271 235 118L234 112L237 112C237.013 115.194 236.597 117.271 240 118C238.051 107.549 235.771 108.798 226 109z"/>
<path style="fill:#b7a1b0; stroke:none;" d="M238 108L239 109L238 108M247 108L247 111L248 111L247 108M20 109L21 110L20 109M24 109L23 114L24 114L24 109z"/>
<path style="fill:#302a55; stroke:none;" d="M25.6181 110.121C22.6131 112.007 26.8153 115.897 29.3426 113.944C31.8918 111.974 27.877 108.704 25.6181 110.121z"/>
<path style="fill:#b7a1b0; stroke:none;" d="M28.6667 109.333L29.3333 109.667L28.6667 109.333M34 109L34 114L35 114L34 109M64 109L65 110L64 109M93 109L94 110L93 109M129 109L130 110L129 109M133 109L134 110L133 109M161 109L162 110L161 109M225.333 109.667L225.667 110.333L225.333 109.667M254 109L254 112L255 112L254 109M258 109L258 113L259 113L258 109M30 110L31 111L30 110M63 110L64 111L63 110M128 110L129 111L128 110M132 110L133 111L132 110M160 110L161 111L160 110M31.3333 111.667L31.6667 112.333L31.3333 111.667M62 111L63 112L62 111M87 111L88 112L87 111M127 111L128 112L127 111M159 111L160 112L159 111M10 112L10 116L11 116L10 112M61 112L62 113L61 112M86 112L87 113L86 112M126 112L127 113L126 112M158 112L170 114L202 114L202 113L158 112M229 112L229 113L232 114L229 112M234 112L234 116L235 116L234 112M236 112L236 115L237 115L236 112M60 113L61 114L60 113M85 113L86 114L85 113M125 113L126 114L125 113M129 113L130 114L129 113M239 113L239 116L240 116L239 113M4 114L4 119L5 119L4 114M25 114L26 115L25 114M30 114L31 115L30 114M248 114L248 119L249 119L248 114M20 115L21 116L20 115M226 115L226 119L227 119L226 115M33 116L34 117L33 116M229 116L229 120L230 120L229 116M22 117L23 118L22 117M32 117L33 118L32 117M255 117L255 139L256 139L255 117M23.6667 118.333L24.3333 118.667L23.6667 118.333M232 118L232 119L235 119L232 118M237 118L237 119L240 119L237 118M259 118L259 139L260 139L259 118M19 120L19 121L22 121L19 120z"/>
<path style="fill:#fefdfd; stroke:none;" d="M19 121L19 133L22 133L22 129L32 129L32 126L22 125L22 121L19 121z"/>
<path style="fill:#b7a1b0; stroke:none;" d="M227 122L227 123L240 123L227 122M9 123L9 134L10 134L9 123z"/>
<path style="fill:#fefdfd; stroke:none;" d="M227 123L227 126L233 126L227 134L232 131L233 131C239.227 137.103 239.996 127.66 240 123L227 123z"/>
<path style="fill:#b7a1b0; stroke:none;" d="M18 124L18 134L22 134L22 133L19 133L18 124M28 125L28 126L32 126L32 129L24 129L24 130L33 130L33 125L28 125z"/>
<path style="fill:#fefdfd; stroke:none;" d="M57 146C60.4098 145.737 61.9011 145.321 63 142C67.1605 142.049 69.8881 142.17 72 146L78 146C77.251 140.999 73.6493 124.665 67.064 125.207C61.0026 125.705 57.7374 141.077 57 146z"/>
<path style="fill:#b7a1b0; stroke:none;" d="M81 125L81 146L82 146L81 125z"/>
<path style="fill:#fefdfd; stroke:none;" d="M82 125L82 146L97 146L97 141C85.7993 140.96 87 134.352 87 125L82 125z"/>
<path style="fill:#b7a1b0; stroke:none;" d="M87 125L87 140L88 140L87 125z"/>
<path style="fill:#fefdfd; stroke:none;" d="M100 146C103.41 145.737 104.901 145.321 106 142C110.161 142.049 112.888 142.17 115 146L121 146L114 125C103.952 125.12 101.28 137.333 100 146z"/>
<path style="fill:#b7a1b0; stroke:none;" d="M136 125L136 130L137 130L136 125z"/>
<path style="fill:#fefdfd; stroke:none;" d="M137 125L137 130L143 130L143 146L149 146L149 130L156 130L156 125L137 125z"/>
<path style="fill:#b7a1b0; stroke:none;" d="M163.667 125.333L164.333 125.667L163.667 125.333z"/>
<path style="fill:#fefdfd; stroke:none;" d="M165.004 125.573C151.979 129.294 158.663 149.584 171.985 145.346C184.806 141.268 178.001 121.861 165.004 125.573z"/>
<path style="fill:#b7a1b0; stroke:none;" d="M172 125L173 126L172 125M188.667 125.333L189.333 125.667L188.667 125.333z"/>
<path style="fill:#fefdfd; stroke:none;" d="M190.001 125.573C176.584 129.377 183.522 149.761 196.96 145.347C208.723 141.483 202.581 122.006 190.001 125.573z"/>
<path style="fill:#b7a1b0; stroke:none;" d="M197 125L198 126L197 125M63 126L64 127L63 126M71 126L72 127L71 126M106 126L107 127L106 126M114.333 126.667L114.667 127.333L114.333 126.667M174 126L175 127L174 126M186 126L187 127L186 126M199 126L200 127L199 126M232 126L233 127L232 126z"/>
<path style="fill:#302a55; stroke:none;" d="M235 126L236 130L237 130L237 126L235 126z"/>
<path style="fill:#b7a1b0; stroke:none;" d="M237 126L237 129L238 129L237 126M160 127L161 128L160 127M185 127L186 128L185 127M200 127L201 128L200 127M105 128L106 129L105 128M159 128L160 129L159 128M184 128L185 129L184 128M201 128L202 129L201 128M230 128L231 129L230 128M62 129L63 130L62 129M72 129L73 130L72 129M115 129L116 130L115 129M167.667 129.333L168.333 129.667L167.667 129.333M177 129L178 130L177 129M183 129L184 130L183 129M192.667 129.333L193.333 129.667L192.667 129.333M202 129L203 130L202 129M228 129L229 130L228 129M235 129L236 130L235 129M149 130L149 146L150 146L149 130M158 130L159 131L158 130M165 130L166 131L165 130z"/>
<path style="fill:#d31525; stroke:none;" d="M166.429 131.047C161.992 133.917 165.609 143.498 170.4 139.953C173.89 137.371 171.593 127.706 166.429 131.047z"/>
<path style="fill:#b7a1b0; stroke:none;" d="M190 130L189 132L190 130z"/>
<path style="fill:#d31525; stroke:none;" d="M191.313 131.086C187.135 133.45 189.681 142.745 194.687 139.914C198.865 137.55 196.319 128.255 191.313 131.086z"/>
<path style="fill:#b7a1b0; stroke:none;" d="M195 130L196 131L195 130M61 131L62 132L61 131M67 131L66 134L67 134L67 131M73.3333 131.667L73.6667 132.333L73.3333 131.667M104 131L105 132L104 131M110 131L109 134L110 134L110 131M178 131L179 132L178 131M196 131L197 132L196 131M232 131L233 132L232 131z"/>
<path style="fill:#d31525; stroke:none;" d="M67 132L65 138L69 138L67 132M110 132L108 138L112 138L110 132z"/>
<path style="fill:#b7a1b0; stroke:none;" d="M116 132L117 133L116 132M164 132L165 133L164 132M172 132L172 139L173 139L172 132M182 132L182 135L183 135L182 132M203 132L203 139L204 139L203 132M231 132L232 133L231 132M233 132L234 133L233 132M239 132L240 133L239 132M68.3333 133.667L68.6667 134.333L68.3333 133.667M229 133L230 134L229 133M234 133L235 134L234 133M238 133L239 134L238 133M25 134L25 141L26 141L28 135L25 134M60 134L61 135L60 134M74 134L75 135L74 134M103 134L104 135L103 134M111 134L112 135L111 134M117 134L118 135L117 134M157 134L157 137L158 137L157 134M188 134L188 137L189 137L188 134M197 134L197 137L198 137L197 134M227 134L228 135L227 134z"/>
<path style="fill:#fefdfd; stroke:none;" d="M26 135L26 144L28 144L28 135L26 135z"/>
<path style="fill:#b7a1b0; stroke:none;" d="M108.333 135.667L108.667 136.333L108.333 135.667M59.3333 136.667L59.6667 137.333L59.3333 136.667M65 136L66 137L65 136M69.3333 136.667L69.6667 137.333L69.3333 136.667M102 136L103 137L102 136z"/>
<path style="fill:#fefdfd; stroke:none;" d="M123 136L123 139L136 139L136 136L123 136z"/>
<path style="fill:#b7a1b0; stroke:none;" d="M182 136L182 139L183 139L182 136M229.667 136.333L230.333 136.667L229.667 136.333M4 137L4 142L5 142L4 137M75 137L76 138L75 137M112 137L113 138L112 137M118 137L119 138L118 137M227 137L226 139L227 137z"/>
<path style="fill:#fefdfd; stroke:none;" d="M237 141L235 148C237.609 146.476 241.402 139.761 235.895 138.921C233.076 138.491 230.295 142.722 228 144L231 137C226.506 138.364 223.663 147.95 230.005 147.079C232.818 146.692 234.998 142.766 237 141z"/>
<path style="fill:#b7a1b0; stroke:none;" d="M235 137L236 138L235 137M248 137L248 142L249 142L248 137M28 138L28 144L29 144L28 138M164 138L165 139L164 138M233 138L234 139L233 138M237 138L238 139L237 138M58 139L59 140L58 139M76 139L77 140L76 139M101 139L102 140L101 139M123 139L123 140L136 140L123 139M178 139L179 140L178 139M189 139L190 140L189 139M196 139L197 140L196 139M230 139L231 140L230 139M232 139L233 140L232 139M238 139L239 140L238 139M119 140L120 141L119 140M158 140L159 141L158 140M165 140L166 141L165 140M190 140L191 141L190 140M195 140L196 141L195 140M229 140L230 141L229 140M10 141L10 145L11 145L10 141M97 141L97 146L98 146L97 141M167 141L167 142L170 142L167 141M177 141L178 142L177 141M183 141L184 142L183 141M192.667 141.333L193.333 141.667L192.667 141.333M202 141L203 142L202 141M225 141L225 145L226 145L225 141M231 141L232 142L231 141M235 141L235 145L233 145L234 148L235 148L237 143L235 144L237 142L235 141M57 142L58 143L57 142M63 144L71 143L63 144M77 142L78 143L77 142M100 142L101 143L100 142M106 142L106 143L114 143L106 142M120 142L121 143L120 142M159 142L160 143L159 142M184 142L185 143L184 142M201 142L202 143L201 142z"/>
<path style="fill:#302a55; stroke:none;" d="M235 142L235 144L237 142L235 142z"/>
<path style="fill:#b7a1b0; stroke:none;" d="M71.3333 143.667L71.6667 144.333L71.3333 143.667M114.333 143.667L114.667 144.333L114.333 143.667M160 143L161 144L160 143M185 143L186 144L185 143M228 143L229 144L228 143M230 143L231 144L230 143M258 143L258 147L259 147L258 143z"/>
<path style="fill:#fefdfd; stroke:none;" d="M0 144L0 256L113 256L113 255C72.3801 253.251 32.3362 222.021 14.2585 187C7.0683 173.071 5.96506 157.828 0 144z"/>
<path style="fill:#b7a1b0; stroke:none;" d="M32 144L33 145L32 144z"/>
<path style="fill:#fefdfd; stroke:none;" d="M33 144L21 151L22 156L36 158L36 154L33 154L33 144z"/>
<path style="fill:#b7a1b0; stroke:none;" d="M56.3333 144.667L56.6667 145.333L56.3333 144.667M99.3333 144.667L99.6667 145.333L99.3333 144.667M174 144L175 145L174 144M186 144L187 145L186 144M199 144L200 145L199 144z"/>
<path style="fill:#302a55; stroke:none;" d="M234 144L235 145L234 144z"/>
<path style="fill:#b7a1b0; stroke:none;" d="M254 144L254 147L255 147L254 144M30 145L31 146L30 145M62 145L63 146L62 145M78 145L79 146L78 145M105 145L106 146L105 145M121 145L122 146L121 145M163.667 145.333L164.333 145.667L163.667 145.333M172 145L173 146L172 145M188 145L189 146L188 145M197 145L198 146L197 145M238 145L239 146L238 145M5 146L5 149L6 149L5 146M29 146L30 147L29 146M34.3333 146.667L34.6667 147.333L34.3333 146.667M226 146L227 147L226 146M232 146L233 147L232 146M247 146L247 149L248 149L247 146M27 147L28 148L27 147M227 147L228 148L227 147M231 147L232 148L231 147M237 147L238 148L237 147M11 148L11 151L12 151L11 148M25 148L26 149L25 148M33 148L34 149L33 148M235 148L236 149L235 148M24 149L25 150L24 149M32 149L33 150L32 149M224 149L225 150L224 149z"/>
<path style="fill:#0b081b; stroke:none;" d="M1 150L2 151L1 150z"/>
<path style="fill:#b7a1b0; stroke:none;" d="M22 150L23 151L22 150z"/>
<path style="fill:#fefdfd; stroke:none;" d="M224 150C225.645 155.006 233.62 157.551 237 153L224 150z"/>
<path style="fill:#b7a1b0; stroke:none;" d="M227.667 150.333L228.333 150.667L227.667 150.333M253 150L253 153L254 153L253 150M257 150L257 153L258 153L257 150z"/>
<path style="fill:#0b081b; stroke:none;" d="M259 150L260 151L259 150z"/>
<path style="fill:#b7a1b0; stroke:none;" d="M27 151L28 152L27 151z"/>
<path style="fill:#302a55; stroke:none;" d="M26 152L26 153L30 151L26 152z"/>
<path style="fill:#b7a1b0; stroke:none;" d="M231.667 151.333L232.333 151.667L231.667 151.333M6.33333 152.667L6.66667 153.333L6.33333 152.667M25 152L26 153L25 152M223 152L223 154L225 154L223 152M235.667 152.333L236.333 152.667L235.667 152.333M246.333 152.667L246.667 153.333L246.333 152.667M12.3333 153.667L12.6667 154.333L12.3333 153.667M21.3333 153.667L21.6667 154.333L21.3333 153.667M27 153L27 154L30 154L27 153M33 153L34 154L33 153M227.667 154.333L228.333 154.667L227.667 154.333M236.333 154.667L236.667 155.333L236.333 154.667z"/>
<path style="fill:#0b081b; stroke:none;" d="M2 155L3 156L2 155z"/>
<path style="fill:#b7a1b0; stroke:none;" d="M231.667 155.333L232.333 155.667L231.667 155.333M252.333 155.667L252.667 156.333L252.333 155.667M256.333 155.667L256.667 156.333L256.333 155.667z"/>
<path style="fill:#0b081b; stroke:none;" d="M258 155L259 156L258 155z"/>
<path style="fill:#b7a1b0; stroke:none;" d="M7.33333 156.667L7.66667 157.333L7.33333 156.667M24 156L24 157L27 157L24 156M36.3333 156.667L36.6667 157.333L36.3333 156.667M235 156L236 157L235 156M245.333 156.667L245.667 157.333L245.333 156.667M13.3333 157.667L13.6667 158.333L13.3333 157.667M30 157L30 158L33 158L30 157M62 158L62 159L95 160C88.029 154.719 70.6301 158 62 158M232 158L231 161L232 161L232 158M35 159L36 160L35 159z"/>
<path style="fill:#fefdfd; stroke:none;" d="M36 159L36 167L26 170L26 172L40 169L36 159M63 159C65.8528 166.837 75.6674 185.17 85 186.107C89.6897 186.578 95.7061 182.665 100 181L94 159L63 159M100 159L106 179L128 175L129 159L100 159M133 159L134 175C139.497 175.434 150.813 179.708 155.725 177.647C161.039 175.418 161.791 163.851 162 159L133 159z"/>
<path style="fill:#b7a1b0; stroke:none;" d="M167 159L168 160L167 159z"/>
<path style="fill:#fefdfd; stroke:none;" d="M168 159L162 181C165.964 183.111 172.369 186.966 177 186.472C186.169 185.495 196.663 166.941 199 159L168 159z"/>
<path style="fill:#b7a1b0; stroke:none;" d="M199 159L200 160L199 159M220 162L221 162L223 160L220 162z"/>
<path style="fill:#fefdfd; stroke:none;" d="M232 159L220 163C224.156 164.368 227.779 165.171 228 170L231 171L234 159L232 159z"/>
<path style="fill:#b7a1b0; stroke:none;" d="M234 159L234 162L235 162L234 159M251.333 159.667L251.667 160.333L251.333 159.667M255.333 159.667L255.667 160.333L255.333 159.667M257 159L258 160L257 159M8.33333 160.667L8.66667 161.333L8.33333 160.667M33 160L34 161L33 160M37.3333 160.667L37.6667 161.333L37.3333 160.667M224.667 160.333L225.333 160.667L224.667 160.333M244.333 160.667L244.667 161.333L244.333 160.667M14 161L15 162L14 161M198 161L199 162L198 161M227.667 161.333L228.333 161.667L227.667 161.333M34.3333 162.667L34.6667 163.333L34.3333 162.667M64 162L65 163L64 162M94 162L94 166L95 166L94 162z"/>
<path style="fill:#0b081b; stroke:none;" d="M4 163L5 164L4 163z"/>
<path style="fill:#b7a1b0; stroke:none;" d="M38.3333 163.667L38.6667 164.333L38.3333 163.667M100 163L100 166L101 166L100 163M197 163L198 164L197 163M221 163L222 164L221 163M233.333 163.667L233.667 164.333L233.333 163.667M243.333 163.667L243.667 164.333L243.333 163.667M250 163L251 164L250 163M254.333 163.667L254.667 164.333L254.333 163.667M9 164L10 165L9 164M15.3333 164.667L15.6667 165.333L15.3333 164.667M65 164L66 165L65 164M161.333 164.667L161.667 165.333L161.333 164.667M167.333 164.667L167.667 165.333L167.333 164.667M224 164L225 165L224 164M35.3333 165.667L35.6667 166.333L35.3333 165.667M227 165L228 166L227 165M39.3333 166.667L39.6667 167.333L39.3333 166.667M66 166L67 167L66 166M195 166L196 167L195 166M232.333 166.667L232.667 167.333L232.333 166.667M242.333 166.667L242.667 167.333L242.333 166.667M249 166L250 167L249 166M253.333 166.667L253.667 167.333L253.333 166.667M255 166L256 167L255 166M10 167L11 168L10 167M16 167L17 168L16 167M32 167L33 168L32 167M29 168L30 169L29 168M95.3333 168.667L95.6667 169.333L95.3333 168.667M101.333 168.667L101.667 169.333L101.333 168.667M194 168L195 169L194 168M228 168L229 169L228 168M26 169L27 170L26 169M39 169L40 170L39 169M68 169L69 170L68 169M133 169L133 175L134 175L133 169M160 169L161 170L160 169M166 169L167 170L166 169M193 169L194 170L193 169M231.333 169.667L231.667 170.333L231.333 169.667M241 169L242 170L241 169M248 169L249 170L248 169M252.333 169.667L252.667 170.333L252.333 169.667M254 169L255 170L254 169M11 170L12 171L11 170M17 170L18 171L17 170M36 170L37 171L36 170M229 170L230 171L229 170M33 171L34 172L33 171z"/>
<path style="fill:#fefdfd; stroke:none;" d="M40 171C27.9839 183.271 33.1647 184.594 47 184L40 171z"/>
<path style="fill:#b7a1b0; stroke:none;" d="M128 171L128 175L124 175L124 176L129 176L128 171M192 171L193 172L192 171M247.333 171.667L247.667 172.333L247.333 171.667z"/>
<path style="fill:#0b081b; stroke:none;" d="M7 172L8 173L7 172z"/>
<path style="fill:#b7a1b0; stroke:none;" d="M12.3333 172.667L12.6667 173.333L12.3333 172.667M18 172L19 173L18 172M26 172L27 173L26 172M30 172L31 173L30 172M41 172L42 173L41 172M70 172L71 173L70 172M96 172L97 173L96 172M102 172L103 173L102 172M159 172L160 173L159 172M165.333 172.667L165.667 173.333L165.333 172.667M191 172L192 173L191 172M215 172L214 174L215 172z"/>
<path style="fill:#fefdfd; stroke:none;" d="M214 175L223 185L223 177L229 174L214 175z"/>
<path style="fill:#b7a1b0; stroke:none;" d="M217 172L218 173L217 172M240 172L241 173L240 172M251 172L252 173L251 172M27 173L28 174L27 173M71 173L72 174L71 173M219 173L220 174L219 173M226 173L226 174L230 174L226 173M42 174L43 175L42 174M97.3333 174.667L97.6667 175.333L97.3333 174.667M103 174L104 175L103 174M158 174L159 175L158 174M239 174L240 175L239 174M246 174L247 175L246 174M13 175L14 176L13 175M19 175L20 176L19 175M41 175L42 176L41 175M134 175L134 176L139 176L134 175M164 175L165 176L164 175M189 175L190 176L189 175M214 175L215 176L214 175M228 175L229 176L228 175M250 175L251 176L250 175M104 176L105 177L104 176M115 176L115 177L118 177L115 176M144 176L144 177L147 177L144 176M188 176L189 177L188 176M216 176L217 177L216 176M238 176L239 177L238 176M245.333 176.667L245.667 177.333L245.333 176.667z"/>
<path style="fill:#0b081b; stroke:none;" d="M9 177L10 178L9 177z"/>
<path style="fill:#b7a1b0; stroke:none;" d="M14 177L15 178L14 177M20 177L21 178L20 177M41 177L42 178L41 177M74 177L75 178L74 177M98 177L99 178L98 177M110.667 177.333L111.333 177.667L110.667 177.333M150.667 177.333L151.333 177.667L150.667 177.333M163 177L164 178L163 177M218 177L219 178L218 177M223 177L223 178L226 178L223 177M249 177L250 178L249 177M33 178L34 179L33 178M38 178L35 182L40 180L37 181L38 178M75 178L76 179L75 178M105 178L106 179L105 178M107 178L108 179L107 178M154 178L155 179L154 178M156 178L157 179L156 178M237 178L238 179L237 178M15 179L16 180L15 179M21 179L22 180L21 179M32 179L33 180L32 179z"/>
<path style="fill:#302a55; stroke:none;" d="M38 179L37 181L39 181L38 179z"/>
<path style="fill:#b7a1b0; stroke:none;" d="M42 179L43 180L42 179M76 179L77 180L76 179M99 179L100 180L99 179M162 179L163 180L162 179M219 179L220 180L219 179M223 179L224 180L223 179M244 179L245 180L244 179M248 179L249 180L248 179M250 179L251 180L250 179M31 180L32 181L31 180M43 180L43 181L46 181L43 180M119 180L119 181L122 181L119 180z"/>
<path style="fill:#fefdfd; stroke:none;" d="M108 183C111.63 191.424 116.822 204.879 127 205L128 180L108 183z"/>
<path style="fill:#b7a1b0; stroke:none;" d="M128.333 180.667L128.667 181.333L128.333 180.667M133 180L133 184L134 184L133 180z"/>
<path style="fill:#fefdfd; stroke:none;" d="M134 180L135 205C144.758 204.884 151.004 191.722 153 183L134 180z"/>
<path style="fill:#b7a1b0; stroke:none;" d="M140 180L140 181L143 181L140 180M224 180L225 181L224 180M236 180L237 181L236 180M22 181L23 182L22 181M30 181L31 182L30 181z"/>
<path style="fill:#302a55; stroke:none;" d="M36 181L37 182L36 181z"/>
<path style="fill:#b7a1b0; stroke:none;" d="M98 181L99 182L98 181M113.667 181.333L114.333 181.667L113.667 181.333M146.667 181.333L147.333 181.667L146.667 181.333M162 181L163 182L162 181M184 181L185 182L184 181M243 181L244 182L243 181M16 182L17 183L16 182M46 182L47 183L46 182M96 182L97 183L96 182M110 182L111 183L110 182M151 182L152 183L151 182M164 182L165 183L164 182M183 182L184 183L183 182M221 182L222 183L221 182M235 182L236 183L235 182M247 182L248 183L247 182M23 183L24 184L23 183M31 183L32 184L31 183M93 183L94 184L93 183M153.333 183.667L153.667 184.333L153.333 183.667M167 183L168 184L167 183M182 183L183 184L182 183M224 183L225 184L224 183M242 183L243 184L242 183M41 184L41 185L45 185L41 184M91 184L92 185L91 184M108 184L109 185L108 184M169 184L170 185L169 184M181 184L182 185L181 184M222 184L223 185L222 184M234 184L235 185L234 184M246 184L247 185L246 184M18 185L19 186L18 185M24 185L25 186L24 185M32 185L32 186L36 186L32 185M82 185L83 186L82 185M88 185L89 186L88 185M100 185L101 186L100 185z"/>
<path style="fill:#fefdfd; stroke:none;" d="M89 190C94.614 197.605 104.915 202.1 114 204C111.576 199.445 106.609 186.932 100.907 186.212C97.2193 185.747 92.3685 188.701 89 190z"/>
<path style="fill:#b7a1b0; stroke:none;" d="M102 185L103 186L102 185M159 185L158 187L159 185z"/>
<path style="fill:#fefdfd; stroke:none;" d="M148 204C157.085 202.1 167.386 197.605 173 190C169.57 188.84 164.754 185.764 161.093 186.213C155.551 186.893 150.146 199.463 148 204z"/>
<path style="fill:#b7a1b0; stroke:none;" d="M161 185L162 186L161 185M172 185L173 186L172 185M241 185L242 186L241 185M83 186L84 187L83 186M86 186L87 187L86 186M97.6667 186.333L98.3333 186.667L97.6667 186.333M103 186L104 187L103 186M109 186L110 187L109 186M163 186L164 187L163 186M174 186L175 187L174 186M233 186L234 187L233 186M245 186L246 187L245 186M19 187L20 188L19 187M95 187L96 188L95 187M151 187L152 188L151 187M166 187L167 188L166 187M177 187L178 188L177 187M240 187L241 188L240 187M26 188L27 189L26 188M92 188L93 189L92 188M104 188L105 189L104 188M157 188L158 189L157 188M168.667 188.333L169.333 188.667L168.667 188.333M232 188L233 189L232 188M239 188L240 189L239 188M20 189L21 190L20 189M90 189L91 190L90 189M111 189L112 190L111 189M150 189L151 190L150 189M156 189L157 190L156 189M171 189L172 190L171 189M231 189L232 190L231 189M243 189L244 190L243 189M245 189L246 190L245 189M27 190L28 191L27 190M88 190L89 191L88 190M173 190L174 191L173 190M238 190L239 191L238 190z"/>
<path style="fill:#0b081b; stroke:none;" d="M16 191L17 192L16 191z"/>
<path style="fill:#b7a1b0; stroke:none;" d="M21 191L22 192L21 191M28 191L29 192L28 191M89 191L90 192L89 191M106 191L107 192L106 191M112 191L113 192L112 191M149 191L150 192L149 191M155 191L156 192L155 191M172 191L173 192L172 191M230 191L231 192L230 191M242 191L243 192L242 191M22 192L23 193L22 192M90 192L91 193L90 192M171 192L172 193L171 192M237 192L238 193L237 192M29 193L30 194L29 193M91 193L92 194L91 193M170 193L171 194L170 193M236 193L237 194L236 193M241 193L242 194L241 193M23 194L24 195L23 194M30 194L31 195L30 194M108 194L109 195L108 194M114 194L115 195L114 194M127 194L127 203L128 203L127 194M147 194L148 195L147 194M153 194L154 195L153 194M228 194L229 195L228 194M240 194L241 195L240 194M94 195L95 196L94 195M134 195L134 204L135 204L134 195M167 195L168 196L167 195M227 195L228 196L227 195M235 195L236 196L235 195z"/>
<path style="fill:#0b081b; stroke:none;" d="M19 196L20 197L19 196z"/>
<path style="fill:#b7a1b0; stroke:none;" d="M31 196L32 197L31 196M109 196L110 197L109 196M115 196L116 197L115 196M146 196L147 197L146 196M152 196L153 197L152 196M234 196L235 197L234 196M239 196L240 197L239 196M25 197L26 198L25 197M32 197L33 198L32 197M97 197L98 198L97 197M151 197L152 198L151 197M164 197L165 198L164 197M226 197L227 198L226 197M26 198L27 199L26 198M99 198L100 199L99 198M116 198L117 199L116 198M145 198L146 199L145 198M162 198L163 199L162 198M225 198L226 199L225 198M233 198L234 199L233 198z"/>
<path style="fill:#0b081b; stroke:none;" d="M21 199L22 200L21 199z"/>
<path style="fill:#b7a1b0; stroke:none;" d="M101 199L102 200L101 199M111 199L112 200L111 199M150 199L151 200L150 199M160 199L161 200L160 199M232 199L233 200L232 199M237 199L238 200L237 199M27 200L28 201L27 200M34 200L35 201L34 200M103 200L104 201L103 200M158 200L159 201L158 200M28 201L29 202L28 201M35 201L36 202L35 201M105 201L106 202L105 201M112 201L113 202L112 201M118 201L119 202L118 201M143 201L144 202L143 201M156 201L157 202L156 201M36 202L37 203L36 202M107 202L108 203L107 202M113 202L114 203L113 202M148 202L149 203L148 202M154 202L155 203L154 202M222 202L223 203L222 202M230 202L231 203L230 202M235 202L236 203L235 202M62 203L63 204L62 203M110.667 203.333L111.333 203.667L110.667 203.333M119 203L120 204L119 203M142 203L143 204L142 203M150.667 203.333L151.333 203.667L150.667 203.333M221 203L222 204L221 203M229 203L230 204L229 203M234 203L235 204L234 203z"/>
<path style="fill:#0b081b; stroke:none;" d="M236 203L237 204L236 203z"/>
<path style="fill:#fefdfd; stroke:none;" d="M62 204L58 207L60 212L65 212L67 207L62 204z"/>
<path style="fill:#b7a1b0; stroke:none;" d="M193 204L195 206L193 204M220 204L221 205L220 204M31 205L32 206L31 205M61 205L62 206L61 205M63 205L64 206L63 205M123 205L123 206L127 206L123 205M135 205L135 206L139 206L135 205z"/>
<path style="fill:#fefdfd; stroke:none;" d="M193 205L189 208L189 209L191 213L197 213L198 208L193 205z"/>
<path style="fill:#b7a1b0; stroke:none;" d="M32 206L33 207L32 206M39 206L40 207L39 206M227 206L228 207L227 206M232 206L233 207L232 206M33 207L34 208L33 207M40 207L41 208L40 207M57 207L58 208L57 207M67 207L68 208L67 207M192 207L193 208L192 207M195 207L195 208L200 208L195 207M226 207L227 208L226 207M231 207L232 208L231 207M41 208L42 209L41 208M188 208L189 209L188 208M225 208L226 209L225 208M230 208L231 209L230 208M42 209L43 210L42 209M190 209L191 210L190 209M224 209L225 210L224 209M43 210L44 211L43 210M59 210L59 213L60 213L59 210M65 210L65 213L66 213L65 210M191.333 210.667L191.667 211.333L191.333 210.667M196 210L197 211L196 210M44 211L45 212L44 211M61 211L62 212L61 211M63 211L64 212L63 211M37 212L38 213L37 212M45 212L46 213L45 212M195 212L196 213L195 212M197.333 212.667L197.667 213.333L197.333 212.667M227 212L228 213L227 212z"/>
<path style="fill:#0b081b; stroke:none;" d="M32 213L33 214L32 213z"/>
<path style="fill:#b7a1b0; stroke:none;" d="M38 213L39 214L38 213M46 213L47 214L46 213M190.667 213.333L191.333 213.667L190.667 213.333M226 213L227 214L226 213z"/>
<path style="fill:#0b081b; stroke:none;" d="M33 214L34 215L33 214z"/>
<path style="fill:#b7a1b0; stroke:none;" d="M39 214L40 215L39 214M47 214L48 215L47 214M225 214L226 215L225 214M40 215L41 216L40 215M48 215L49 216L48 215M224 215L225 216L224 215M41 216L42 217L41 216M223 216L224 217L223 216z"/>
<path style="fill:#0b081b; stroke:none;" d="M225 216L222 220L225 216z"/>
<path style="fill:#b7a1b0; stroke:none;" d="M42 217L43 218L42 217M207 217L208 218L207 217M222 217L223 218L222 217M43 218L44 219L43 218M52 218L53 219L52 218M206 218L207 219L206 218M221 218L222 219L221 218M53 219L54 220L53 219M205 219L206 220L205 219M214 219L215 220L214 219M220 219L221 220L220 219M54 220L55 221L54 220M213 220L214 221L213 220M219 220L220 221L219 220z"/>
<path style="fill:#0b081b; stroke:none;" d="M40 221L41 222L40 221z"/>
<path style="fill:#b7a1b0; stroke:none;" d="M105 221L106 222L105 221z"/>
<path style="fill:#fefdfd; stroke:none;" d="M101 227L105 226L105 237L108 237L108 221L101 227z"/>
<path style="fill:#b7a1b0; stroke:none;" d="M108 221L108 237L109 237L108 221M117 221L118 222L117 221z"/>
<path style="fill:#fefdfd; stroke:none;" d="M122 231C120.004 234.688 117.948 234.516 114 234C124.988 250.893 129.197 212.947 116.319 222.782C110.41 227.295 117.141 231.899 122 231z"/>
<path style="fill:#b7a1b0; stroke:none;" d="M120.667 221.333L121.333 221.667L120.667 221.333M131 221L131 222L135 222L131 221M202 221L203 222L202 221M212 221L213 222L212 221M218 221L219 222L218 221z"/>
<path style="fill:#0b081b; stroke:none;" d="M41 222L42 223L41 222z"/>
<path style="fill:#b7a1b0; stroke:none;" d="M48 222L49 223L48 222M57 222L58 223L57 222M115 222L116 223L115 222z"/>
<path style="fill:#fefdfd; stroke:none;" d="M136 231L135 236L128 234C133.121 243.286 141.742 232.693 138.258 225.228C136.684 221.856 131.175 220.998 129.032 224.318C125.525 229.753 131.883 232.087 136 231z"/>
<path style="fill:#b7a1b0; stroke:none;" d="M136 222L137 223L136 222M145 222L146 223L145 222z"/>
<path style="fill:#fefdfd; stroke:none;" d="M145 229C147.213 225.118 148.864 225.179 153 226C148.191 217.286 139.714 226.61 142.743 233.941C144.41 237.977 150.598 239.411 152.712 234.853C155.244 229.394 148.672 228.031 145 229z"/>
<path style="fill:#b7a1b0; stroke:none;" d="M151 222L152 223L151 222M201 222L202 223L201 222M211 222L212 223L211 222M217 222L218 223L217 222M49 223L50 224L49 223M58 223L59 224L58 223M103 223L104 224L103 223M114 223L115 224L114 223M152 223L153 224L152 223M216 223L217 224L216 223M50 224L51 225L50 224M101 224L102 225L101 224M117 224L118 225L117 224z"/>
<path style="fill:#302a55; stroke:none;" d="M120 230L121 224C117.202 225.253 116.737 227.624 120 230z"/>
<path style="fill:#b7a1b0; stroke:none;" d="M124 224L125 225L124 224z"/>
<path style="fill:#302a55; stroke:none;" d="M132 224C131.216 227.43 131.578 228.864 135 230L134 224L132 224z"/>
<path style="fill:#b7a1b0; stroke:none;" d="M134 224L135 225L134 224M138 224L139 225L138 224M147 224L147 225L150 225L147 224M198 224L199 225L198 224M61 225L62 226L61 225M100.333 225.667L100.667 226.333L100.333 225.667M113 225L113 228L114 228L113 225M121 225L121 229L122 229L121 225M135.333 225.667L135.667 226.333L135.333 225.667M142.333 225.667L142.667 226.333L142.333 225.667M153 225L154 226L153 225M197 225L198 226L197 225M207 225L208 226L207 225M53 226L54 227L53 226M103 226L104 227L103 226M125 226L125 232L126 232L125 226M127.333 226.667L127.667 227.333L127.333 226.667M139 226L139 233L140 233L139 226M195 226L196 227L195 226M206 226L207 227L206 226M212 226L213 227L212 226M54 227L55 228L54 227M64 227L65 228L64 227M101 227L102 228L101 227M145.333 227.667L145.667 228.333L145.333 227.667M148.667 227.333L149.333 227.667L148.667 227.333M194 227L195 228L194 227M211 227L212 228L211 227M66 228L67 229L66 228M135 228L136 229L135 228M151 228L152 229L151 228M192 228L193 229L192 228M203 228L204 229L203 228M210 228L211 229L210 228M57 229L58 230L57 229M67 229L68 230L67 229M114 229L115 230L114 229M118 229L119 230L118 229M120 229L121 230L120 229M131 229L132 230L131 229M152 229L153 230L152 229M202 229L203 230L202 229M208 229L209 230L208 229M69 230L70 231L69 230M146 230L147 231L146 230z"/>
<path style="fill:#302a55; stroke:none;" d="M147 230L147 236L149 236L149 230L147 230z"/>
<path style="fill:#b7a1b0; stroke:none;" d="M149 230L150 231L149 230M189 230L190 231L189 230M200 230L201 231L200 230M207 230L208 231L207 230z"/>
<path style="fill:#0b081b; stroke:none;" d="M209 230L210 231L209 230M52 231L53 232L52 231z"/>
<path style="fill:#b7a1b0; stroke:none;" d="M60 231L61 232L60 231M71 231L72 232L71 231M116 231L117 232L116 231M120 231L121 234L122 234L122 231L120 231M135 231L136 232L135 231M150 231L150 235L151 235L150 231M153 231L154 232L153 231M187 231L188 232L187 231M199 231L200 232L199 231M206 231L207 232L206 231M73 232L74 233L73 232M132.667 232.333L133.333 232.667L132.667 232.333M145.333 232.667L145.667 233.333L145.333 232.667M185 232L186 233L185 232M197 232L198 233L197 232M204 232L205 233L204 232z"/>
<path style="fill:#0b081b; stroke:none;" d="M55 233L56 234L55 233z"/>
<path style="fill:#b7a1b0; stroke:none;" d="M63 233L64 234L63 233M75 233L76 234L75 233M115.667 233.333L116.333 233.667L115.667 233.333M135 233L136 234L135 233M183 233L184 234L183 233M203 233L204 234L203 233M65 234L66 235L65 234M77 234L78 235L77 234M117 234L118 235L117 234M124 234L125 235L124 234M131 234L132 235L131 234M138 234L139 235L138 234M142 234L143 235L142 234M153.333 234.667L153.667 235.333L153.333 234.667M181 234L182 235L181 234M194 234L195 235L194 234M201 234L202 235L201 234M79 235L80 236L79 235M114 235L115 236L114 235M118.667 235.333L119.333 235.667L118.667 235.333M132 235L132 236L135 236L132 235M146 235L147 236L146 235M149 235L150 236L149 235M179 235L180 236L179 235M192 235L193 236L192 235M200 235L201 236L200 235M68 236L69 237L68 236M81 236L82 237L81 236M137 236L138 237L137 236M143 236L144 237L143 236M152 236L153 237L152 236M177 236L178 237L177 236M190 236L191 237L190 236M198 236L199 237L198 236z"/>
<path style="fill:#0b081b; stroke:none;" d="M61 237L62 238L61 237z"/>
<path style="fill:#b7a1b0; stroke:none;" d="M70 237L71 238L70 237M83 237L84 238L83 237M105 237L105 238L108 238L105 237M116 237L117 238L116 237M121 237L122 238L121 237M144 237L145 238L144 237M151 237L152 238L151 237M174 237L175 238L174 237M189 237L190 238L189 237M197 237L198 238L197 237M72 238L73 239L72 238M86 238L87 239L86 238M146 238L146 239L150 239L146 238M172 238L173 239L172 238M187 238L188 239L187 238M195.333 238.667L195.667 239.333L195.333 238.667M74 239L75 240L74 239M88.6667 239.333L89.3333 239.667L88.6667 239.333M169 239L170 240L169 239M185 239L186 240L185 239M193 239L194 240L193 239M76 240L77 241L76 240M91.6667 240.333L92.3333 240.667L91.6667 240.333M166 240L167 241L166 240M182.667 240.333L183.333 240.667L182.667 240.333M191 240L192 241L191 240M78 241L79 242L78 241M94.6667 241.333L95.3333 241.667L94.6667 241.333M163 241L164 242L163 241M180 241L181 242L180 241M189.667 241.333L190.333 241.667L189.667 241.333z"/>
<path style="fill:#0b081b; stroke:none;" d="M70 242L71 243L70 242z"/>
<path style="fill:#b7a1b0; stroke:none;" d="M81 242L82 243L81 242M98.6667 242.333L99.3333 242.667L98.6667 242.333M159.667 242.333L160.333 242.667L159.667 242.333M178 242L179 243L178 242M187.667 242.333L188.333 242.667L187.667 242.333M83 243L84 244L83 243M102.667 243.333L103.333 243.667L102.667 243.333M155.667 243.333L156.333 243.667L155.667 243.333M175.667 243.333L176.333 243.667L175.667 243.333M185.667 243.333L186.333 243.667L185.667 243.333M86 244L87 245L86 244M107.667 244.333L108.333 244.667L107.667 244.333M149 244L149 245L152 245L149 244M173 244L174 245L173 244M183 244L184 245L183 244M89 245L90 246L89 245M113 245L113 246L117 246L113 245M142 245L142 246L146 246L142 245M170 245L171 246L170 245M181 245L182 246L181 245M92 246L93 247L92 246M124 246L124 247L135 247L124 246M167 246L168 247L167 246M176 247L176 248L180 247L176 247M95.6667 247.333L96.3333 247.667L95.6667 247.333M163.667 247.333L164.333 247.667L163.667 247.333z"/>
<path style="fill:#0b081b; stroke:none;" d="M84 248L85 249L84 248z"/>
<path style="fill:#b7a1b0; stroke:none;" d="M99.6667 248.333L100.333 248.667L99.6667 248.333M159.667 248.333L160.333 248.667L159.667 248.333M173.667 248.333L174.333 248.667L173.667 248.333M103.667 249.333L104.333 249.667L103.667 249.333M154 249L154 250L157 250L154 249M170.667 249.333L171.333 249.667L170.667 249.333M108 250L108 251L111 251L108 250M149 250L149 251L152 251L149 250M167.667 250.333L168.333 250.667L167.667 250.333M115 251L115 252L120 252L115 251M140 251L140 252L145 252L140 251M163 251L163 252L166 252L163 251z"/>
<path style="fill:#0b081b; stroke:none;" d="M97 252L98 253L97 252z"/>
<path style="fill:#b7a1b0; stroke:none;" d="M160.667 252.333L161.333 252.667L160.667 252.333z"/>
<path style="fill:#0b081b; stroke:none;" d="M162 252L163 253L162 252z"/>
<path style="fill:#b7a1b0; stroke:none;" d="M155 253L155 254L158 254L155 253M150 254L151 255L150 254z"/>
<path style="fill:#0b081b; stroke:none;" d="M113 255L114 256L113 255z"/>
</svg>
